<svg width="32" height="32" viewBox="0 0 32 32" fill="none" xmlns="http://www.w3.org/2000/svg">
<path fill-rule="evenodd" clip-rule="evenodd" d="M27.9993 5.33301H13.7727C13.062 5.33245 12.3804 5.61562 11.8793 6.11968L3.05268 14.9463C2.80636 15.1947 2.66749 15.5299 2.66602 15.8797V16.1197C2.66749 16.4695 2.80636 16.8047 3.05268 17.053L11.8793 25.8797C12.3804 26.3837 13.062 26.6669 13.7727 26.6663H27.9993C28.7357 26.6663 29.3327 26.0694 29.3327 25.333V6.66634C29.3327 5.92996 28.7357 5.33301 27.9993 5.33301ZM26.6668 24H13.7734L5.77344 16L13.7734 8H26.6668V24ZM15.2527 20.1197L14.546 19.413C14.4171 19.292 14.344 19.1231 14.344 18.9463C14.344 18.7696 14.4171 18.6007 14.546 18.4797L17.0127 15.9997L14.546 13.5197C14.4171 13.3987 14.344 13.2298 14.344 13.053C14.344 12.8762 14.4171 12.7073 14.546 12.5863L15.2527 11.8797C15.3737 11.7508 15.5426 11.6777 15.7193 11.6777C15.8961 11.6777 16.065 11.7508 16.186 11.8797L18.666 14.3463L21.146 11.8797C21.267 11.7508 21.4359 11.6777 21.6127 11.6777C21.7895 11.6777 21.9584 11.7508 22.0793 11.8797L22.786 12.5863C22.9149 12.7073 22.988 12.8762 22.988 13.053C22.988 13.2298 22.9149 13.3987 22.786 13.5197L20.3193 15.9997L22.786 18.4797C22.9149 18.6007 22.988 18.7696 22.988 18.9463C22.988 19.1231 22.9149 19.292 22.786 19.413L22.0793 20.1197C21.9584 20.2486 21.7895 20.3217 21.6127 20.3217C21.4359 20.3217 21.267 20.2486 21.146 20.1197L18.666 17.653L16.186 20.1197C16.065 20.2486 15.8961 20.3217 15.7193 20.3217C15.5426 20.3217 15.3737 20.2486 15.2527 20.1197Z" fill="#1E3B4B"/>
</svg>
